<svg width="161" height="57" viewBox="0 0 161 57" fill="none" xmlns="http://www.w3.org/2000/svg">
<path fill-rule="evenodd" clip-rule="evenodd" d="M0.498108 0.00219727C5.74239 0.00219727 10.9873 0.00219727 16.2319 0.00219727C19.6161 -0.0642853 22.8911 1.49417 25.4011 4.6949C29.656 10.2667 33.9105 15.838 38.1654 21.4101C41.9278 26.1245 42.1856 29.4409 42.0726 35.963V56.6855H25.0886C25.0886 48.7058 25.0886 40.7259 25.0886 32.7468L0.498108 0.00219727ZM38.1263 11.737C41.8337 7.97049 45.5412 4.20459 49.249 0.438366C51.6481 3.26846 54.0473 6.09854 56.4468 8.92895C58.7219 11.4387 58.1635 15.3858 55.8193 17.5626C52.819 20.7006 49.819 23.8377 46.8187 26.9753C46.805 23.8237 45.861 21.2778 43.947 18.8929C42.007 16.5074 40.0667 14.1222 38.1263 11.737Z" fill="#FB9514"/>
<path d="M72.2911 29.784H77.0301V48.3749H72.2911V46.2929C71.1398 48.028 69.3152 48.8955 66.8171 48.8955C64.809 48.8955 63.1493 48.2138 61.8392 46.8507C60.5288 45.4873 59.8735 43.6033 59.8735 41.1989V29.784H64.6128V40.604C64.6128 41.8432 64.9434 42.7917 65.6047 43.4484C66.2661 44.1054 67.1476 44.4337 68.2498 44.4337C69.4744 44.4337 70.4541 44.0497 71.189 43.2811C71.9237 42.5129 72.2911 41.36 72.2911 39.8231V29.784Z" fill="#282828"/>
<path d="M91.5782 29.2638C93.5864 29.2638 95.2458 29.9452 96.5557 31.3086C97.8663 32.672 98.5216 34.5558 98.5216 36.9601V48.375H93.7827V37.5552C93.7827 36.3158 93.4519 35.3676 92.7903 34.7107C92.1288 34.054 91.2474 33.7256 90.1456 33.7256C88.921 33.7256 87.9412 34.1096 87.2069 34.8779C86.4718 35.6465 86.1042 36.799 86.1042 38.3359V48.375H81.3653V29.7841H86.1042V31.8663C87.2553 30.1313 89.0797 29.2638 91.5782 29.2638Z" fill="#282828"/>
<path d="M122.878 29.2638C124.985 29.2638 126.669 29.9576 127.93 31.3457C129.192 32.7339 129.822 34.5931 129.822 36.9233V48.375H125.083V37.2578C125.083 36.1423 124.814 35.2746 124.274 34.655C123.736 34.0354 122.976 33.7256 121.996 33.7256C120.919 33.7256 120.081 34.0849 119.481 34.8037C118.88 35.5225 118.58 36.5635 118.58 37.9268V48.375H113.841V37.2578C113.841 36.1423 113.572 35.2746 113.033 34.655C112.494 34.0354 111.735 33.7256 110.755 33.7256C109.702 33.7256 108.863 34.0849 108.239 34.8037C107.614 35.5225 107.302 36.5635 107.302 37.9268V48.375H102.563V29.7841H107.302V31.7547C108.404 30.094 110.106 29.2638 112.408 29.2638C114.661 29.2638 116.327 30.1561 117.405 31.9406C118.629 30.1561 120.454 29.2638 122.878 29.2638Z" fill="#282828"/>
<path d="M137.868 41.0502C138.504 43.3804 140.231 44.5453 143.048 44.5453C144.86 44.5453 146.231 43.9254 147.162 42.6863L150.983 44.9172C149.17 47.5695 146.501 48.8955 142.974 48.8955C139.937 48.8955 137.5 47.9662 135.663 46.1069C133.827 44.2478 132.908 41.9054 132.908 39.0796C132.908 36.2786 133.814 33.9423 135.627 32.0709C137.439 30.1992 139.766 29.2637 142.607 29.2637C145.301 29.2637 147.523 30.2054 149.275 32.0891C151.026 33.9731 151.902 36.3033 151.902 39.0796C151.902 39.6992 151.84 40.3562 151.718 41.0502H137.868ZM137.794 37.3322H147.162C146.893 36.0677 146.335 35.1257 145.491 34.5062C144.645 33.8866 143.684 33.5768 142.607 33.5768C141.333 33.5768 140.28 33.9052 139.447 34.5621C138.615 35.2187 138.063 36.1422 137.794 37.3322Z" fill="#282828"/>
<path d="M155.208 48.375V29.7841H159.947V48.375H155.208Z" fill="#282828"/>
<path d="M157.559 27.5527C156.775 27.5527 156.096 27.2615 155.52 26.679C154.944 26.0966 154.657 25.4087 154.657 24.6154C154.657 23.8224 154.944 23.128 155.52 22.5332C156.096 21.9383 156.775 21.641 157.559 21.641C158.367 21.641 159.059 21.9383 159.635 22.5332C160.21 23.128 160.498 23.8224 160.498 24.6154C160.498 25.4087 160.21 26.0966 159.635 26.679C159.059 27.2615 158.367 27.5527 157.559 27.5527Z" fill="#FB9514"/>
<path d="M107.909 9.72131C109.288 9.72131 110.449 10.1913 111.391 11.1311C112.333 12.071 112.805 13.2251 112.805 14.5934C112.805 15.9615 112.333 17.1156 111.391 18.0551C110.449 18.995 109.288 19.4649 107.909 19.4649H105.389V24.2331H102.563V9.72131H107.909ZM107.909 16.791C108.51 16.791 109.008 16.5798 109.404 16.1584C109.8 15.7367 109.998 15.2151 109.998 14.5934C109.998 13.9575 109.8 13.4322 109.404 13.0177C109.008 12.6031 108.51 12.3959 107.909 12.3959H105.389V16.791H107.909ZM122.575 22.9374C121.523 23.9947 120.24 24.5234 118.724 24.5234C117.208 24.5234 115.928 23.9947 114.883 22.9374C113.839 21.8801 113.316 20.5847 113.316 19.0503C113.316 17.5163 113.839 16.2206 114.883 15.1635C115.928 14.1059 117.208 13.5775 118.724 13.5775C120.24 13.5775 121.523 14.1059 122.575 15.1635C123.627 16.2206 124.152 17.5163 124.152 19.0503C124.152 20.5847 123.627 21.8801 122.575 22.9374ZM116.748 21.1028C117.273 21.6417 117.932 21.9113 118.724 21.9113C119.516 21.9113 120.178 21.6417 120.711 21.1028C121.243 20.5637 121.51 19.8798 121.51 19.0503C121.51 18.2212 121.243 17.5369 120.711 16.9981C120.178 16.4589 119.516 16.1896 118.724 16.1896C117.932 16.1896 117.273 16.4589 116.748 16.9981C116.221 17.5369 115.959 18.2212 115.959 19.0503C115.959 19.8798 116.221 20.5637 116.748 21.1028ZM126.016 24.2331V9.09931H128.658V24.2331H126.016ZM133.308 20.1491C133.663 21.4482 134.626 22.0977 136.196 22.0977C137.207 22.0977 137.972 21.7524 138.49 21.0615L140.621 22.3051C139.61 23.7839 138.122 24.5234 136.155 24.5234C134.462 24.5234 133.103 24.0053 132.08 22.9686C131.055 21.9321 130.543 20.6262 130.543 19.0503C130.543 17.4887 131.049 16.1859 132.058 15.1425C133.07 14.0991 134.367 13.5775 135.95 13.5775C137.453 13.5775 138.692 14.1028 139.669 15.153C140.645 16.2033 141.133 17.5024 141.133 19.0503C141.133 19.396 141.099 19.762 141.03 20.1491H133.308ZM133.267 18.0762H138.49C138.34 17.3713 138.03 16.846 137.559 16.5007C137.087 16.155 136.552 15.9822 135.95 15.9822C135.24 15.9822 134.653 16.1652 134.189 16.5316C133.725 16.8979 133.418 17.4127 133.267 18.0762ZM145.004 16.8113C145.004 17.0878 145.185 17.3125 145.547 17.4853C145.909 17.6579 146.349 17.81 146.868 17.9414C147.387 18.0724 147.906 18.2385 148.425 18.4388C148.944 18.6391 149.384 18.9743 149.746 19.4442C150.108 19.9142 150.289 20.5015 150.289 21.2064C150.289 22.2706 149.897 23.0896 149.111 23.663C148.326 24.2365 147.346 24.5234 146.172 24.5234C144.069 24.5234 142.635 23.701 141.87 22.0563L144.165 20.7504C144.465 21.6486 145.134 22.0977 146.172 22.0977C147.114 22.0977 147.585 21.8006 147.585 21.2064C147.585 20.93 147.404 20.7056 147.042 20.5328C146.68 20.3599 146.24 20.2045 145.721 20.0662C145.202 19.928 144.683 19.7555 144.165 19.5478C143.646 19.3406 143.205 19.0123 142.843 18.5631C142.482 18.1142 142.3 17.5509 142.3 16.8735C142.3 15.8511 142.672 15.0458 143.417 14.4587C144.161 13.8712 145.086 13.5775 146.192 13.5775C147.025 13.5775 147.783 13.7673 148.466 14.1476C149.149 14.5276 149.689 15.0701 150.084 15.7751L147.831 17.0189C147.503 16.3139 146.957 15.9615 146.192 15.9615C145.85 15.9615 145.567 16.0375 145.342 16.1896C145.117 16.3414 145.004 16.5489 145.004 16.8113Z" fill="#282828"/>
</svg>
