<svg width="58" height="57" viewBox="0 0 58 57" fill="none" xmlns="http://www.w3.org/2000/svg">
<path fill-rule="evenodd" clip-rule="evenodd" d="M0.498108 0.31665C5.74239 0.31665 10.9873 0.31665 16.2319 0.31665C19.6161 0.250168 22.8911 1.80862 25.4011 5.00935C29.656 10.5811 33.9105 16.1525 38.1654 21.7246C41.9278 26.439 42.1856 29.7554 42.0726 36.2775V57H25.0886C25.0886 49.0202 25.0886 41.0404 25.0886 33.0612L0.498108 0.31665ZM38.1263 12.0515C41.8337 8.28495 45.5412 4.51904 49.249 0.752819C51.6481 3.58291 54.0473 6.41299 56.4468 9.2434C58.7219 11.7532 58.1635 15.7003 55.8193 17.8771C52.819 21.015 49.819 24.1521 46.8187 27.2898C46.805 24.1382 45.861 21.5922 43.947 19.2074C42.007 16.8218 40.0667 14.4367 38.1263 12.0515Z" fill="#FB9514"/>
</svg>
